<svg width="84" height="69" viewBox="0 0 84 69" fill="none" xmlns="http://www.w3.org/2000/svg">
<path d="M83.0625 68.299H42.1973V60.9381V9.41237V1H51.4999V6.25773H45.8519V7.83505V9.41237H62.1315C67.1151 9.76289 72.0322 14.1093 74.4243 25.8866C76.8165 37.6639 77.8575 54.1615 78.079 60.9381H83.0625V68.299Z" fill="#009FE3"/>
<path d="M42.1973 60.9381V68.299H83.0625V60.9381H78.079M42.1973 60.9381V9.41237M42.1973 60.9381H78.079M42.1973 9.41237V1H51.4999V6.25773H45.8519V7.83505V9.41237M42.1973 9.41237H45.8519M78.079 60.9381C77.8575 54.1615 76.8165 37.6639 74.4243 25.8866C72.0322 14.1093 67.1151 9.76289 62.1315 9.41237H45.8519" stroke="#009FE3"/>
<path d="M42.1973 1V8.71134H45.8519V7.83505V6.25773H51.4999V1H42.1973Z" fill="#078ED0" stroke="#078ED0"/>
<path d="M1.00095 68.299H41.8662V60.9381V9.41237V1H32.5636V6.25773H38.2116V9.41237H21.9319C16.9484 9.76289 12.0312 14.1093 9.63914 25.8866C7.24702 37.6639 6.20601 54.1615 5.98452 60.9381H1.00095V68.299Z" fill="#2DAAE1"/>
<path d="M41.8662 60.9381V68.299H1.00095V60.9381H5.98452M41.8662 60.9381V9.41237M41.8662 60.9381H5.98452M41.8662 9.41237V1H32.5636V6.25773H38.2116V9.41237M41.8662 9.41237H38.2116M5.98452 60.9381C6.20601 54.1615 7.24702 37.6639 9.63914 25.8866C12.0313 14.1093 16.9484 9.76289 21.9319 9.41237H38.2116" stroke="#2DAAE1"/>
<rect width="41.1975" height="8.41237" transform="matrix(-1 0 0 1 83.3965 60.5874)" fill="#078ED0"/>
<rect width="41.1975" height="8.41237" transform="matrix(-1 0 0 1 42.1973 60.5874)" fill="#009FE3"/>
<path d="M41.8662 1V8.71134H37.8794V7.83505V6.25773H32.2313V1H41.8662Z" fill="#009FE3" stroke="#009FE3"/>
<path d="M59.4746 12.2168H49.5075V28.691H35.2212V12.2168H24.9219V58.1343H35.2212V40.9591H49.5075V57.7838H59.4746V12.2168Z" fill="white" stroke="white"/>
</svg>
